<svg width="20" height="20" viewBox="0 0 20 20" fill="none" xmlns="http://www.w3.org/2000/svg">
<g clip-path="url(#clip0_42_68)">
<path d="M2.50244 10C2.50244 10.9849 2.69643 11.9602 3.07334 12.8701C3.45026 13.7801 4.0027 14.6069 4.69914 15.3033C5.39558 15.9997 6.22237 16.5522 7.13232 16.9291C8.04226 17.306 9.01753 17.5 10.0024 17.5C10.9874 17.5 11.9626 17.306 12.8726 16.9291C13.7825 16.5522 14.6093 15.9997 15.3057 15.3033C16.0022 14.6069 16.5546 13.7801 16.9315 12.8701C17.3084 11.9602 17.5024 10.9849 17.5024 10C17.5024 9.01509 17.3084 8.03982 16.9315 7.12987C16.5546 6.21993 16.0022 5.39314 15.3057 4.6967C14.6093 4.00026 13.7825 3.44781 12.8726 3.0709C11.9626 2.69399 10.9874 2.5 10.0024 2.5C9.01753 2.5 8.04226 2.69399 7.13232 3.0709C6.22237 3.44781 5.39558 4.00026 4.69914 4.6967C4.0027 5.39314 3.45026 6.21993 3.07334 7.12987C2.69643 8.03982 2.50244 9.01509 2.50244 10Z" stroke="#868484" stroke-width="1.83333" stroke-linecap="round" stroke-linejoin="round"/>
<path d="M11.6692 8.12495C11.1834 7.69806 10.5518 7.47483 9.90571 7.50168C9.25959 7.52853 8.64868 7.8034 8.20002 8.26912C7.75202 8.73395 7.50171 9.35437 7.50171 9.99995C7.50171 10.6455 7.75202 11.266 8.20002 11.7308C8.64868 12.1965 9.25959 12.4714 9.90571 12.4982C10.5518 12.5251 11.1834 12.3018 11.6692 11.875" stroke="#868484" stroke-width="1.83333" stroke-linecap="round" stroke-linejoin="round"/>
</g>
<defs>
<clipPath id="clip0_42_68">
<rect width="20" height="20" fill="white" transform="translate(0.00244141)"/>
</clipPath>
</defs>
</svg>
