<svg width="20" height="20" viewBox="0 0 20 20" fill="none" xmlns="http://www.w3.org/2000/svg">
<g clip-path="url(#clip0_42_40)">
<path d="M3.33594 6.66659C3.33594 5.78253 3.68713 4.93468 4.31225 4.30956C4.93737 3.68444 5.78522 3.33325 6.66927 3.33325H13.3359C14.22 3.33325 15.0678 3.68444 15.693 4.30956C16.3181 4.93468 16.6693 5.78253 16.6693 6.66659V13.3333C16.6693 14.2173 16.3181 15.0652 15.693 15.6903C15.0678 16.3154 14.22 16.6666 13.3359 16.6666H6.66927C5.78522 16.6666 4.93737 16.3154 4.31225 15.6903C3.68713 15.0652 3.33594 14.2173 3.33594 13.3333V6.66659Z" stroke="#868484" stroke-width="1.83333" stroke-linecap="round" stroke-linejoin="round"/>
<path d="M7.50244 10C7.50244 10.663 7.76583 11.2989 8.23467 11.7678C8.70352 12.2366 9.3394 12.5 10.0024 12.5C10.6655 12.5 11.3014 12.2366 11.7702 11.7678C12.239 11.2989 12.5024 10.663 12.5024 10C12.5024 9.33696 12.239 8.70107 11.7702 8.23223C11.3014 7.76339 10.6655 7.5 10.0024 7.5C9.3394 7.5 8.70352 7.76339 8.23467 8.23223C7.76583 8.70107 7.50244 9.33696 7.50244 10Z" stroke="#868484" stroke-width="1.83333" stroke-linecap="round" stroke-linejoin="round"/>
<path d="M13.7524 6.25V6.25917" stroke="#868484" stroke-width="1.83333" stroke-linecap="round" stroke-linejoin="round"/>
</g>
<defs>
<clipPath id="clip0_42_40">
<rect width="20" height="20" fill="white" transform="translate(0.00244141)"/>
</clipPath>
</defs>
</svg>
